<svg width="35" height="35" viewBox="0 0 59 59" fill="none" xmlns="http://www.w3.org/2000/svg">
<path d="M29.5 0C13.2101 0 0 13.2101 0 29.5C0 45.7899 13.2101 59 29.5 59C45.7899 59 59 45.7899 59 29.5C59 13.2101 45.7899 0 29.5 0ZM46.3373 36.4838C46.2553 38.2871 45.9686 39.5182 45.55 40.5958C44.67 42.8712 42.8712 44.67 40.5958 45.55C39.5186 45.9686 38.2871 46.2549 36.4843 46.3373C34.6779 46.4196 34.1008 46.4395 29.5005 46.4395C24.8996 46.4395 24.323 46.4196 22.5162 46.3373C20.7134 46.2549 19.4818 45.9686 18.4046 45.55C17.2739 45.1246 16.2503 44.458 15.404 43.596C14.5425 42.7502 13.8758 41.7261 13.4505 40.5958C13.0318 39.5186 12.7451 38.2871 12.6632 36.4843C12.5799 34.6774 12.5605 34.1004 12.5605 29.5C12.5605 24.8996 12.5799 24.3226 12.6627 22.5162C12.7447 20.7129 13.0309 19.4818 13.4496 18.4042C13.8749 17.2739 14.542 16.2498 15.404 15.404C16.2498 14.542 17.2739 13.8754 18.4042 13.45C19.4818 13.0314 20.7129 12.7451 22.5162 12.6627C24.3226 12.5804 24.8996 12.5605 29.5 12.5605C34.1004 12.5605 34.6774 12.5804 36.4838 12.6632C38.2871 12.7451 39.5182 13.0314 40.5958 13.4496C41.7261 13.8749 42.7502 14.542 43.5964 15.404C44.458 16.2503 45.1251 17.2739 45.55 18.4042C45.9691 19.4818 46.2553 20.7129 46.3377 22.5162C46.4201 24.3226 46.4395 24.8996 46.4395 29.5C46.4395 34.1004 46.4201 34.6774 46.3373 36.4838Z" fill="#324C69"/>
</svg>
