<svg width="35" height="35" viewBox="0 0 59 59" fill="none" xmlns="http://www.w3.org/2000/svg">
<path d="M29.5 59C26.786 59 24.1703 58.646 21.653 57.938C19.1357 57.2297 16.7855 56.2368 14.6025 54.9585C12.4195 53.6802 10.4332 52.1462 8.6435 50.3565C6.85383 48.567 5.31983 46.5805 4.0415 44.3975C2.76317 42.2143 1.77 39.8643 1.062 37.3469C0.354 34.8297 0 32.214 0 29.5C0 26.786 0.354 24.1703 1.062 21.653C1.77 19.1357 2.76317 16.7855 4.0415 14.6025C5.31983 12.4195 6.85383 10.4332 8.6435 8.6435C10.4332 6.85383 12.4195 5.31983 14.6025 4.0415C16.7855 2.76317 19.1357 1.77 21.653 1.062C24.1703 0.354 26.786 0 29.5 0C33.5513 0 37.3765 0.776834 40.9755 2.3305C44.5745 3.88417 47.7015 5.9885 50.3565 8.6435C53.0115 11.2985 55.1158 14.4255 56.6695 18.0245C58.2232 21.6235 59 25.4487 59 29.5C59 32.214 58.646 34.8297 57.938 37.347C57.2297 39.864 56.2368 42.2142 54.9585 44.3975C53.6802 46.5805 52.1462 48.5668 50.3565 50.3565C48.567 52.1462 46.5805 53.6805 44.3975 54.9585C42.2143 56.2368 39.8643 57.23 37.3468 57.938C34.8297 58.646 32.214 59 29.5 59ZM43.719 17.346H15.753C15.4777 17.346 15.2417 17.4345 15.045 17.6115C14.8483 17.7885 14.75 18.0343 14.75 18.349V21.476C14.75 21.6333 14.809 21.712 14.927 21.712L29.618 30.09L29.7363 30.149C29.8147 30.149 29.874 30.1293 29.9133 30.09L44.1323 21.712C44.2107 21.6727 44.27 21.653 44.3093 21.653C44.3483 21.653 44.4076 21.6333 44.4863 21.594C44.6436 21.594 44.7223 21.5153 44.7223 21.358V18.349C44.7223 18.0343 44.6239 17.7885 44.427 17.6115C44.2301 17.4345 43.9943 17.346 43.719 17.346ZM23.659 29.913C23.6983 29.8737 23.718 29.8146 23.718 29.736C23.718 29.6177 23.6787 29.559 23.6 29.559L15.163 24.7209C15.045 24.6816 14.9467 24.6816 14.868 24.7209C14.7893 24.7209 14.75 24.7799 14.75 24.8979V37.5829C14.75 37.7012 14.809 37.7796 14.927 37.8189H15.045C15.1237 37.8189 15.163 37.7992 15.163 37.7599L23.659 29.913ZM33.925 30.857C33.8857 30.7387 33.787 30.7193 33.6297 30.798L30.3847 32.686C29.9914 32.922 29.5787 32.922 29.1457 32.686L26.3137 31.0933C26.1957 31.0146 26.0974 31.0146 26.0187 31.0933L15.2217 41.1233C15.1824 41.1623 15.1627 41.2413 15.1627 41.359C15.1627 41.3983 15.202 41.4574 15.2807 41.536C15.5167 41.6147 15.674 41.6543 15.7527 41.6543H43.4238C43.5025 41.6543 43.5814 41.615 43.6598 41.536C43.6598 41.3787 43.6401 41.2806 43.6008 41.241L33.925 30.857ZM44.545 24.485H44.3093L36.2853 29.264C36.2069 29.264 36.1673 29.323 36.1673 29.441C36.128 29.4803 36.1476 29.5393 36.226 29.6177L44.25 38.291C44.3287 38.3697 44.3877 38.4093 44.427 38.4093H44.545C44.6633 38.291 44.7223 38.2126 44.7223 38.1733V24.7211C44.722 24.6423 44.663 24.5637 44.545 24.485Z" fill="#324C69"/>
</svg>
