<svg width="35" height="35" viewBox="0 0 60 60" fill="none" xmlns="http://www.w3.org/2000/svg">
<path d="M29.6979 0C13.2974 0 0 13.2974 0 29.698C0 46.0983 13.2974 59.396 29.6979 59.396C46.0985 59.396 59.3956 46.0982 59.3956 29.698C59.3957 13.2974 46.0985 0 29.6979 0ZM45.3804 43.3326L43.0025 45.711C42.578 46.1349 41.3349 46.3994 41.295 46.3994C33.7725 46.4651 26.5295 43.5103 21.2078 38.188C15.8715 32.8486 12.9133 25.5798 12.9927 18.032C12.9927 18.0285 13.2649 16.8211 13.6891 16.4009L16.0668 14.0228C16.9369 13.1487 18.6084 12.7537 19.7792 13.1454L20.2794 13.3122C21.4469 13.7036 22.6726 14.9944 22.9951 16.1837L24.1912 20.5736C24.5138 21.7663 24.0787 23.463 23.2089 24.3331L21.6212 25.9211C23.18 31.6918 27.7079 36.2206 33.4796 37.7832L35.0667 36.1949C35.9408 35.3208 37.637 34.8861 38.827 35.2081L43.2164 36.4085C44.4059 36.7354 45.6965 37.9534 46.0877 39.1204L46.2545 39.6278C46.6423 40.7954 46.2504 42.4665 45.3804 43.3326Z" fill="#324C69"/>
</svg>
