<svg width="90" viewBox="0 0 123 22" fill="none" xmlns="http://www.w3.org/2000/svg">
<path d="M0.26 21V0.615999H9.668C12.5987 0.615999 14.8947 1.68933 16.556 3.836C18.012 5.72133 18.74 8.04533 18.74 10.808C18.74 13.5333 17.9373 15.876 16.332 17.836C14.596 19.9453 12.3747 21 9.668 21H0.26ZM5.86 5.32V16.296H9.136C10.4613 16.296 11.4507 15.7267 12.104 14.588C12.6453 13.636 12.916 12.376 12.916 10.808C12.916 9.44533 12.6453 8.26 12.104 7.252C11.4133 5.964 10.424 5.32 9.136 5.32H5.86ZM0.82 1.176V20.44H9.668C12.2253 20.44 14.3067 19.46 15.912 17.5C17.424 15.652 18.18 13.4213 18.18 10.808C18.18 8.15733 17.508 5.95467 16.164 4.2C14.6147 2.184 12.4493 1.176 9.668 1.176H0.82ZM5.3 16.856V4.76H9.136C10.592 4.76 11.7213 5.47867 12.524 6.916C13.1587 8.05467 13.476 9.352 13.476 10.808C13.476 12.4693 13.1773 13.8227 12.58 14.868C11.8147 16.1933 10.6667 16.856 9.136 16.856H5.3ZM35.6912 14.84H25.3312C25.3312 15.568 25.5645 16.1933 26.0312 16.716C26.5165 17.22 27.1045 17.472 27.7952 17.472C28.3365 17.472 28.8312 17.3227 29.2792 17.024C29.7272 16.7253 30.0258 16.352 30.1752 15.904H35.4952C35.2898 17.3973 34.4405 18.6667 32.9472 19.712C31.4538 20.7573 29.7365 21.28 27.7952 21.28C25.6298 21.28 23.7818 20.5053 22.2512 18.956C20.7205 17.4067 19.9552 15.54 19.9552 13.356C19.9552 11.284 20.7112 9.52 22.2232 8.064C23.7538 6.608 25.6112 5.88 27.7952 5.88C29.9792 5.88 31.8365 6.58933 33.3672 8.008C34.9165 9.408 35.6912 11.1067 35.6912 13.104V14.84ZM25.3312 11.592H30.1752C30.1005 11.1067 29.8112 10.668 29.3072 10.276C28.8218 9.884 28.2805 9.688 27.6832 9.688C27.1045 9.688 26.5818 9.87467 26.1152 10.248C25.6485 10.6213 25.3872 11.0693 25.3312 11.592ZM24.7712 14.28H35.1312V13.104C35.1312 11.2373 34.4312 9.66 33.0312 8.372C31.6312 7.084 29.8858 6.44 27.7952 6.44C25.7232 6.44 23.9872 7.112 22.5872 8.456C21.2058 9.78133 20.5152 11.4147 20.5152 13.356C20.5152 15.428 21.2152 17.1733 22.6152 18.592C24.0152 20.0107 25.7418 20.72 27.7952 20.72C29.5872 20.72 31.1738 20.2813 32.5552 19.404C33.9365 18.5267 34.7018 17.5467 34.8512 16.464H30.5952C30.4832 16.8187 30.1285 17.1733 29.5312 17.528C28.9525 17.864 28.3738 18.032 27.7952 18.032C26.9552 18.032 26.2365 17.6867 25.6392 16.996C25.0605 16.2867 24.7712 15.3813 24.7712 14.28ZM30.8192 12.152H24.7152C24.8085 11.256 25.1445 10.528 25.7232 9.968C26.3018 9.408 26.9552 9.128 27.6832 9.128C28.4858 9.128 29.1858 9.37067 29.7832 9.856C30.4738 10.416 30.8192 11.1813 30.8192 12.152ZM36.8908 6.16H42.2108V15.148C42.2108 15.6147 42.3788 16.0253 42.7148 16.38C43.0508 16.7347 43.4614 16.912 43.9468 16.912C44.5441 16.912 45.0574 16.7347 45.4868 16.38C45.9161 16.0253 46.1308 15.6053 46.1308 15.12V6.16H51.4508V21H46.1308V19.768C45.8508 20.1787 45.3468 20.5333 44.6188 20.832C43.8908 21.1307 43.1721 21.28 42.4628 21.28C40.9134 21.28 39.5974 20.7573 38.5148 19.712C37.4321 18.6667 36.8908 17.3973 36.8908 15.904V6.16ZM41.6508 6.72H37.4508V15.904C37.4508 17.2853 37.9268 18.4333 38.8788 19.348C39.8308 20.2627 41.0254 20.72 42.4628 20.72C43.3214 20.72 44.0494 20.5707 44.6468 20.272C45.4494 19.8613 46.1121 19.1707 46.6348 18.2L46.6908 20.44H50.8908V6.72H46.6908V15.12C46.6908 15.736 46.4108 16.2867 45.8508 16.772C45.3094 17.2387 44.6748 17.472 43.9468 17.472C43.3494 17.472 42.8174 17.2387 42.3508 16.772C41.8841 16.3053 41.6508 15.764 41.6508 15.148V6.72ZM60.4344 21.28C58.1944 21.28 56.3931 20.7853 55.0304 19.796C53.6864 18.788 53.0144 17.4907 53.0144 15.904H58.3064C58.3064 16.3147 58.5117 16.66 58.9224 16.94C59.3517 17.22 59.8744 17.36 60.4904 17.36C61.0131 17.36 61.4331 17.276 61.7504 17.108C62.0864 16.94 62.2544 16.688 62.2544 16.352C62.2544 15.9787 61.5077 15.652 60.0144 15.372C58.0171 14.9987 56.6171 14.6067 55.8144 14.196C54.2837 13.412 53.5184 12.2173 53.5184 10.612C53.5184 9.30533 54.1437 8.19467 55.3944 7.28C56.6637 6.34667 58.2131 5.88 60.0424 5.88C62.0024 5.88 63.6544 6.36533 64.9984 7.336C66.3611 8.288 67.0424 9.492 67.0424 10.948H62.0864C61.9931 10.5 61.7691 10.192 61.4144 10.024C61.0597 9.83733 60.6117 9.744 60.0704 9.744C59.6784 9.744 59.3517 9.84667 59.0904 10.052C58.8291 10.2573 58.6984 10.5 58.6984 10.78C58.6984 11.3213 59.4637 11.704 60.9944 11.928C63.1971 12.264 64.6157 12.5627 65.2504 12.824C66.7997 13.4773 67.5744 14.5973 67.5744 16.184C67.5744 17.864 66.8184 19.1613 65.3064 20.076C63.9811 20.8787 62.3571 21.28 60.4344 21.28ZM60.4344 20.72C62.2824 20.72 63.7944 20.3747 64.9704 19.684C66.3331 18.8813 67.0144 17.7147 67.0144 16.184C67.0144 14.84 66.2491 13.888 64.7184 13.328C63.2997 13.0293 61.8437 12.7213 60.3504 12.404C58.8757 12.0867 58.1384 11.5453 58.1384 10.78C58.1384 10.388 58.3344 10.024 58.7264 9.688C59.1184 9.352 59.5664 9.184 60.0704 9.184C60.6677 9.184 61.2091 9.28667 61.6944 9.492C62.1797 9.69733 62.4597 9.996 62.5344 10.388H66.4544C66.4544 9.34267 65.8384 8.428 64.6064 7.644C63.3744 6.84133 61.8531 6.44 60.0424 6.44C58.3064 6.44 56.8784 6.84133 55.7584 7.644C54.6384 8.44667 54.0784 9.436 54.0784 10.612C54.0784 11.9933 54.8251 13.0293 56.3184 13.72C56.8037 13.944 58.2037 14.336 60.5184 14.896C62.0491 15.2693 62.8144 15.7547 62.8144 16.352C62.8144 16.8373 62.5811 17.22 62.1144 17.5C61.6477 17.78 61.1064 17.92 60.4904 17.92C59.8371 17.92 59.2211 17.752 58.6424 17.416C58.0637 17.08 57.7744 16.7627 57.7744 16.464H53.5744C53.5744 17.6773 54.1904 18.6947 55.4224 19.516C56.6544 20.3187 58.3251 20.72 60.4344 20.72Z" fill="#2E2E2E" fill-opacity="0.8"/>
<path d="M69.4648 21V1.09375H75.877C77.6361 1.09375 79.2174 1.49479 80.6211 2.29688C82.0247 3.08984 83.1185 4.21549 83.9023 5.67383C84.6953 7.12305 85.0964 8.75 85.1055 10.5547V11.4707C85.1055 13.2936 84.7181 14.9297 83.9434 16.3789C83.1777 17.819 82.0931 18.9492 80.6895 19.7695C79.2949 20.5807 77.7363 20.9909 76.0137 21H69.4648ZM74.2637 4.79883V17.3086H75.9316C77.3079 17.3086 78.3652 16.821 79.1035 15.8457C79.8418 14.8613 80.2109 13.403 80.2109 11.4707V10.6094C80.2109 8.6862 79.8418 7.23698 79.1035 6.26172C78.3652 5.28646 77.2897 4.79883 75.877 4.79883H74.2637ZM94.5117 21.2734C92.2422 21.2734 90.4056 20.599 89.002 19.25C87.5983 17.8919 86.8965 16.1283 86.8965 13.959V13.5762C86.8965 12.0632 87.1745 10.7279 87.7305 9.57031C88.2956 8.41276 89.1159 7.51953 90.1914 6.89062C91.2669 6.2526 92.543 5.93359 94.0195 5.93359C96.0977 5.93359 97.7383 6.58073 98.9414 7.875C100.145 9.16016 100.746 10.9557 100.746 13.2617V15.0527H91.5859C91.75 15.8822 92.11 16.5339 92.666 17.0078C93.222 17.4818 93.9421 17.7188 94.8262 17.7188C96.2845 17.7188 97.4238 17.2083 98.2441 16.1875L100.35 18.6758C99.7754 19.4688 98.9596 20.1022 97.9023 20.5762C96.8542 21.041 95.724 21.2734 94.5117 21.2734ZM93.9922 9.48828C92.6432 9.48828 91.8411 10.3815 91.5859 12.168H96.2344V11.8125C96.2526 11.0742 96.0658 10.5046 95.6738 10.1035C95.2819 9.69336 94.7214 9.48828 93.9922 9.48828ZM108.32 15.5176L110.658 6.20703H115.512L110.686 21H105.982L101.156 6.20703H106.023L108.32 15.5176Z" fill="#3F3F3F"/>
<path d="M119.736 16.5293C120.465 16.5293 121.072 16.748 121.555 17.1855C122.038 17.6139 122.279 18.1654 122.279 18.8398C122.279 19.5143 122.038 20.0703 121.555 20.5078C121.072 20.9362 120.465 21.1504 119.736 21.1504C118.998 21.1504 118.387 20.9316 117.904 20.4941C117.43 20.0566 117.193 19.5052 117.193 18.8398C117.193 18.1745 117.43 17.623 117.904 17.1855C118.387 16.748 118.998 16.5293 119.736 16.5293Z" fill="#767676"/>
</svg>
